<svg width="200" height="200" viewBox="0 0 200 200" fill="none" xmlns="http://www.w3.org/2000/svg">
<circle cx="100" cy="100" r="90" fill="#3578E5"/>
<path d="M63.7149 124.44C62.9816 122.68 61.9916 120.443 60.7449 117.73C59.5716 115.017 58.2883 112.083 56.8949 108.93C55.5016 105.777 53.9983 102.55 52.3849 99.25C50.8449 95.8767 49.3783 92.7233 47.9849 89.79C46.5916 86.7833 45.2716 84.1067 44.0249 81.76C42.8516 79.4133 41.8983 77.6167 41.1649 76.37C40.3583 85.0233 39.6983 94.41 39.1849 104.53C38.6716 114.577 38.2316 124.733 37.8649 135H27.4149C27.7083 128.4 28.0383 121.763 28.4049 115.09C28.7716 108.343 29.1749 101.743 29.6149 95.29C30.1283 88.7633 30.6416 82.42 31.1549 76.26C31.7416 70.1 32.3649 64.27 33.0249 58.77H42.3749C44.3549 61.9967 46.4816 65.81 48.7549 70.21C51.0283 74.61 53.3016 79.23 55.5749 84.07C57.8483 88.8367 60.0483 93.64 62.1749 98.48C64.3016 103.247 66.2449 107.61 68.0049 111.57C69.7649 107.61 71.7083 103.247 73.8349 98.48C75.9616 93.64 78.1616 88.8367 80.4349 84.07C82.7083 79.23 84.9816 74.61 87.2549 70.21C89.5283 65.81 91.6549 61.9967 93.6349 58.77H102.985C105.478 83.3367 107.348 108.747 108.595 135H98.1449C97.7783 124.733 97.3383 114.577 96.8249 104.53C96.3116 94.41 95.6516 85.0233 94.8449 76.37C94.1116 77.6167 93.1216 79.4133 91.8749 81.76C90.7016 84.1067 89.4183 86.7833 88.0249 89.79C86.6316 92.7233 85.1283 95.8767 83.5149 99.25C81.9749 102.55 80.5083 105.777 79.1149 108.93C77.7216 112.083 76.4016 115.017 75.1549 117.73C73.9816 120.443 73.0283 122.68 72.2949 124.44H63.7149ZM121.695 97.71H142.485V75.05H151.285V97.71H172.075V106.4H151.285V129.17H142.485V106.4H121.695V97.71Z" fill="white"/>
</svg>
